<?xml version="1.0" encoding="utf-8"?>
<!-- Generator: Adobe Illustrator 23.0.0, SVG Export Plug-In . SVG Version: 6.00 Build 0)  -->
<svg version="1.1" id="Layer_1" xmlns="http://www.w3.org/2000/svg" xmlns:xlink="http://www.w3.org/1999/xlink" x="0px" y="0px"
	 viewBox="0 0 646.4 760.6" style="enable-background:new 0 0 646.4 760.6;" xml:space="preserve">
<style type="text/css">
	.st0{fill:none;}
	.st1{opacity:0.86;}
	.st2{fill:#9F1D22;}
	.st3{fill:none;stroke:#FFFFFF;stroke-width:2;stroke-miterlimit:10;}
	.st4{font-family:'MyriadPro-Regular';}
	.st5{font-size:5.8815px;}
	.st6{opacity:0.97;fill:#FFFFFF;}
	.st7{font-family:'Cinzel-Black';}
	.st8{font-size:23.526px;}
</style>
<image style="overflow:visible;" width="585" height="456" xlink:href="989AB25D.jpg"  transform="matrix(0.9479 0 0 0.9479 40.7457 98.4829)">
</image>
<polyline class="st0" points="-395,341.9 -395,106.9 -313,106.9 -313,-29.1 -500,-29.1 -500,102.9 -423,104.9 -421,333.9 
	-422,341.9 "/>
<polygon class="st0" points="-402,61.9 -462,61.9 -423,104.9 "/>
<path class="st0" d="M-455,24.9c-3.6-9.3-0.1-23.2,8-27c16.4-7.6,51.8,26.3,47,37C-404.4,44.7-447.1,45.6-455,24.9z"/>
<path class="st0" d="M-220,97.9"/>
<g class="st1">
	<defs>
		<polygon id="SVGID_1_" class="st1" points="88.2,528.3 90.6,416.3 79.7,416.1 75.1,409.4 75.1,408.6 90.8,407.8 91,394.1 
			91.7,393.2 91.7,392.2 92.7,391.5 92.7,390.2 93.9,389 93.9,388.3 95.1,387.5 96.7,387.5 97.7,388.1 98.5,388.3 99.8,388.9 
			100.4,389.6 101.1,390.2 101.1,391.3 102,392.4 101.9,394.1 101.7,404.7 101.7,405.3 184.3,394.9 189.9,394.7 193.1,395.6 
			193,397.4 192.4,398.4 191.7,399.5 190.9,400.9 188.9,402.6 187.1,404 185,405.5 182.5,405.5 180.7,406 167.5,407.4 166.7,408.5 
			166.5,413.7 166.6,414.5 163.8,414.8 163.4,407.8 114.9,413.3 114.4,415.1 113.9,419 114,419.8 111.3,419.7 110.9,417.7 
			110.5,415.9 111.2,415.4 111.2,414 101.9,415 100.3,528.5 		"/>
	</defs>
	<clipPath id="SVGID_2_">
		<use xlink:href="#SVGID_1_"  style="overflow:visible;"/>
	</clipPath>
	<g transform="matrix(1 -1.862645e-09 1.862645e-09 1 0 0)" style="clip-path:url(#SVGID_2_);">
		
			<image style="overflow:visible;" width="505" height="341" xlink:href="../goll.jpg"  transform="matrix(-0.4994 -9.915150e-03 -9.580061e-03 0.4825 311.9414 368.1256)">
		</image>
	</g>
</g>
<rect x="80" y="405.3" class="st0" width="94.7" height="62.6"/>
<g>
	<path class="st2" d="M195.1,469.9c0.1,1.1-0.7,2.1-1.8,2.2l-79.2,9.1c-1.1,0.1-2.1-0.7-2.2-1.8l-6.2-54.2c-0.1-1.1,0.7-2.1,1.8-2.2
		l79.2-9.1c1.1-0.1,2.1,0.7,2.2,1.8L195.1,469.9z"/>
	<path class="st3" d="M195.1,469.9c0.1,1.1-0.7,2.1-1.8,2.2l-79.2,9.1c-1.1,0.1-2.1-0.7-2.2-1.8l-6.2-54.2c-0.1-1.1,0.7-2.1,1.8-2.2
		l79.2-9.1c1.1-0.1,2.1,0.7,2.2,1.8L195.1,469.9z"/>
</g>
<text transform="matrix(0.9952 -9.746684e-02 9.746684e-02 0.9952 116.7792 443.9741)"><tspan x="0" y="0" class="st4 st5">      </tspan><tspan x="7.5" y="0" class="st6 st7 st8">For</tspan><tspan x="0" y="28.2" class="st6 st7 st8">RENT</tspan></text>
</svg>
